<svg xmlns="http://www.w3.org/2000/svg" width="420" height="420" viewBox="0 0 420 420"><g transform="translate(0 0.478)" opacity="0.33"><rect width="420" height="420" rx="10" transform="translate(0 -0.478)"/><path d="M10,1a9.01,9.01,0,0,0-9,9V410a9.01,9.01,0,0,0,9,9H410a9.01,9.01,0,0,0,9-9V10a9.01,9.01,0,0,0-9-9H10m0-1H410a10,10,0,0,1,10,10V410a10,10,0,0,1-10,10H10A10,10,0,0,1,0,410V10A10,10,0,0,1,10,0Z" transform="translate(0 -0.478)"/><path d="M50,0l50,100H0Z" transform="translate(260 159.522) rotate(90)" fill="#fff"/><path d="M50,2.236,1.618,99H98.382L50,2.236M50,0l50,100H0Z" transform="translate(260 159.522) rotate(90)" fill="#707070"/></g></svg>